<svg width="93" height="43" fill="none" xmlns="http://www.w3.org/2000/svg"><path d="M82 42V5.4h-5v-5h15.3v5h-5V42h-5.2ZM66.5 42.3c-2.9 0-5-.7-6.3-2.2-1.4-1.5-2-4-2-7.4V.3h5.3v31.4c0 2 .2 3.5.7 4.3.5.8 1.3 1.2 2.3 1.2 1 0 1.8-.4 2.3-1.2.5-.8.8-2.2.8-4.3V.3h5.3v32.4c0 3.5-.7 6-2 7.4-1.4 1.5-3.5 2.2-6.4 2.2ZM47.4 42.3c-4 0-6.5-1.7-7.3-5.1-.9-3.4-1.3-8.8-1.3-16 0-7.3.4-12.7 1.3-16 .8-3.5 3.3-5.2 7.3-5.2 4.1 0 6.6 1.7 7.4 5.2a71 71 0 0 1 1.4 16c0 7.2-.5 12.6-1.4 16-.8 3.4-3.3 5.1-7.4 5.1Zm0-5c1.2 0 2-.9 2.6-2.5.6-1.6 1-6.2 1-13.6a59 59 0 0 0-1-13.7C49.5 5.9 48.6 5 47.4 5c-1 0-2 .8-2.5 2.4a59 59 0 0 0-1 13.7c0 7.4.4 12 1 13.6.6 1.6 1.4 2.4 2.5 2.4ZM20.3 42V.3h10.9c2.7 0 4.2 1.1 4.6 3.3a37.8 37.8 0 0 1 0 12.4c-.3 2-1.2 3-2.8 3 1.6.2 2.6 1.4 3 3.6a59.1 59.1 0 0 1 0 15.7c-.3 2.5-2 3.7-4.7 3.7h-11Zm5.2-5h4.2c.7 0 1.2-.7 1.3-2a44.7 44.7 0 0 0 0-11.3c-.2-1.4-.7-2.1-1.6-2.1h-3.9V37Zm0-20.2h3.7c.8 0 1.3-.6 1.5-1.8a25 25 0 0 0 0-8.2c-.1-1-.6-1.5-1.3-1.5h-3.9v11.5ZM.6 42 5.6.3h8l5 41.7h-5.4l-1-11.2H7L6 42H.5Zm6.8-16.2h4.3L9.7 5h-.2l-2 20.8Z" fill="#fff"/></svg>