<svg width="424" height="41" fill="none" xmlns="http://www.w3.org/2000/svg"><path d="M414 31c0-3 .3-5.4.7-7.2.5-1.8 1.1-3.4 2-4.8.6-1.2 1.2-2.5 1.6-3.7.4-1.2.7-2.7.7-4.4 0-2-.2-3.4-.6-4.3a2 2 0 0 0-2-1.4c-1 0-1.8.5-2.2 1.7-.4 1.1-.6 3.2-.6 6.1h-5c0-4.8.6-8 1.8-9.7 1.3-1.6 3.2-2.4 6-2.4s4.8.7 6 2.2c1 1.5 1.6 3.8 1.6 6.9a20.2 20.2 0 0 1-2.8 10.6 13 13 0 0 0-1.7 4.8c-.3 1.7-.4 3.5-.4 5.5h-5Zm.1 3.8h5v5.6h-5v-5.6ZM398.4 40.5c-4 0-6.4-1.2-7-3.7-.8-2.5-1.1-6.2-1.1-11h5.1c0 4.6.3 7.4.7 8.4.5 1 1.3 1.6 2.3 1.6 1 0 1.8-.5 2.3-1.4.5-1 .7-2.3.7-4 0-2.3-.3-3.9-1-4.8-.6-.9-1.8-1.7-3.4-2.4a12.2 12.2 0 0 1-5.4-4.1c-.9-1.5-1.3-3.8-1.3-7 0-2.5.4-5 1-7.5.8-2.5 3.2-3.7 7.1-3.7 4 0 6.3 1.3 7 4 .8 2.5 1.1 6.1 1.1 10.6h-5.1c0-4.5-.3-7.2-.8-8.3-.4-1-1.2-1.6-2.2-1.6-1 0-1.8.5-2.3 1.5-.5 1-.7 2.3-.7 3.9 0 2.2.3 3.8 1 4.7.6.9 1.8 1.7 3.5 2.5 2.8 1.3 4.6 2.6 5.4 4 .8 1.3 1.3 3.6 1.3 7a28 28 0 0 1-1.1 7.6c-.7 2.5-3 3.7-7 3.7ZM380.2 40.5c-4 0-6.5-1.2-7.2-3.7-.7-2.5-1-6.2-1-11h5.1c0 4.6.3 7.4.7 8.4.5 1 1.3 1.6 2.3 1.6 1 0 1.8-.5 2.3-1.4.5-1 .7-2.3.7-4 0-2.3-.3-3.9-1-4.8-.6-.9-1.8-1.7-3.4-2.4a12.2 12.2 0 0 1-5.4-4.1c-.9-1.5-1.3-3.8-1.3-7 0-2.5.4-5 1-7.5.8-2.5 3.2-3.7 7.2-3.7s6.2 1.3 7 4c.7 2.5 1 6.1 1 10.6h-5.1c0-4.5-.3-7.2-.8-8.3-.4-1-1.2-1.6-2.2-1.6-1 0-1.8.5-2.3 1.5-.5 1-.7 2.3-.7 3.9 0 2.2.3 3.8 1 4.7.7.9 1.8 1.7 3.5 2.5 2.8 1.3 4.6 2.6 5.4 4 .9 1.3 1.3 3.6 1.3 7a28 28 0 0 1-1 7.6c-.8 2.5-3.1 3.7-7.1 3.7ZM357.4 40.3V1.2H370v4.7h-7.4v12.2h7v4.6h-7v12.9h7.4v4.7h-12.6ZM339.5 40.3V1.2H350c2.7 0 4.2 1.2 4.6 3.6a43.5 43.5 0 0 1 0 15c-.4 2.3-2 3.5-4.7 3.5h-5.2v17h-5.2Zm10.7 0-3-18.2 5.1-.6 3.3 18.8h-5.4Zm-5.5-21.2h3.4c1 0 1.5-.6 1.7-1.8a28.7 28.7 0 0 0 0-9.5c-.3-1.2-.8-1.9-1.7-1.9h-3.4v13.2ZM321.5 40.3V1.2h9.5c3 0 5 1.4 5.6 4 .7 2.8 1 8 1 15.5 0 7.6-.4 12.8-1 15.5-.7 2.7-2.5 4.1-5.6 4.1h-9.5Zm5.1-4.7h2.8c1.1 0 2-.8 2.4-2.2.4-1.4.6-5.6.6-12.7 0-7-.2-11.2-.6-12.6-.5-1.4-1.3-2.2-2.4-2.2h-2.8v29.7ZM303.4 40.3V1.2h9.5c3.1 0 5 1.4 5.6 4 .7 2.8 1 8 1 15.5 0 7.6-.3 12.8-1 15.5-.7 2.7-2.5 4.1-5.6 4.1h-9.5Zm5.1-4.7h2.8c1.2 0 2-.8 2.4-2.2.4-1.4.6-5.6.6-12.7 0-7-.2-11.2-.6-12.6-.4-1.4-1.2-2.2-2.4-2.2h-2.8v29.7ZM284 40.3l5-39.2h7.8l5 39.2h-5.3l-1.1-10.5h-5l-1 10.5H284Zm6.8-15.2h4.2l-2-19.5h-.1l-2.1 19.5ZM259.5 40.3V1.2H270c2.7 0 4.2 1.2 4.6 3.6a43.5 43.5 0 0 1 0 15c-.4 2.3-2 3.5-4.7 3.5h-5.2v17h-5.2Zm10.7 0-3-18.2 5.1-.6 3.3 18.8h-5.4Zm-5.5-21.2h3.4c1 0 1.5-.6 1.7-1.8a28.7 28.7 0 0 0 0-9.5c-.3-1.2-.8-1.9-1.7-1.9h-3.4v13.2ZM249 40.5c-2.8 0-5-.6-6.2-2-1.4-1.4-2-3.7-2-7V1.2h5.2v29.4c0 2 .2 3.3.7 4 .5.8 1.2 1.2 2.3 1.2 1 0 1.8-.4 2.2-1.1.5-.8.8-2.1.8-4V1.1h5.2v30.3c0 3.3-.7 5.6-2 7-1.4 1.4-3.4 2-6.2 2ZM230.2 40.6c-4 0-6.4-1.6-7.2-4.8-.9-3.3-1.3-8.3-1.3-15 0-6.9.4-12 1.3-15.1.8-3.2 3.2-4.8 7.2-4.8s6.4 1.6 7.3 4.8c.9 3.2 1.3 8.3 1.3 15 0 6.8-.4 11.8-1.3 15-.9 3.3-3.3 4.9-7.3 4.9Zm0-4.8c1.2 0 2-.8 2.6-2.3.6-1.5.8-5.8.8-12.8 0-7-.2-11.3-.8-12.8-.6-1.5-1.4-2.3-2.6-2.3-1 0-2 .8-2.5 2.3-.6 1.5-.9 5.8-.9 12.8 0 7 .3 11.3.9 12.8.6 1.5 1.4 2.3 2.5 2.3ZM209.2 40.3v-14l-6.5-25.1h5.4l3.7 18.6 3.6-18.6h5.4l-6.5 25.2v13.9h-5.1ZM181.8 40.3V1.2h12.6v4.7H187v12.2h7v4.6h-7v12.9h7.4v4.7h-12.6ZM163.5 40.3V1.2h10.7c2.7 0 4.2 1 4.5 3.1a34 34 0 0 1 .1 11.6c-.3 1.8-1.2 2.8-2.8 2.9 1.6.1 2.5 1.2 3 3.3a53 53 0 0 1 0 14.8c-.4 2.2-2 3.4-4.7 3.4h-10.8Zm5.2-4.7h4c.8 0 1.2-.7 1.4-1.9a40.2 40.2 0 0 0 0-10.6c-.3-1.3-.8-2-1.6-2h-3.8v14.5Zm0-19h3.6c.8 0 1.3-.5 1.5-1.6a22.4 22.4 0 0 0 0-7.7c-.1-1-.6-1.4-1.3-1.4h-3.8v10.7ZM146.5 40.5c-4 0-6.4-1.2-7.1-3.7-.8-2.5-1.1-6.2-1.1-11h5.1c0 4.6.3 7.4.7 8.4.5 1 1.3 1.6 2.3 1.6 1 0 1.8-.5 2.3-1.4.5-1 .7-2.3.7-4 0-2.3-.3-3.9-1-4.8-.6-.9-1.7-1.7-3.4-2.4a12.2 12.2 0 0 1-5.4-4.1c-.9-1.5-1.3-3.8-1.3-7 0-2.5.4-5 1.1-7.5.7-2.5 3-3.7 7-3.7s6.3 1.3 7 4c.8 2.5 1.1 6.1 1.1 10.6h-5.1c0-4.5-.3-7.2-.8-8.3-.4-1-1.2-1.6-2.2-1.6-1 0-1.8.5-2.3 1.5-.5 1-.7 2.3-.7 3.9 0 2.2.3 3.8 1 4.7.7.9 1.8 1.7 3.5 2.5 2.8 1.3 4.6 2.6 5.4 4 .9 1.3 1.3 3.6 1.3 7a28 28 0 0 1-1 7.6c-.8 2.5-3.1 3.7-7.1 3.7ZM130.4 40.3V1.2h5.2v39.1h-5.2ZM111.5 40.3V1.2h5.2v16.6h5.6V1.2h5.2v39.1h-5.2V22.6h-5.6v17.7h-5.2ZM99.6 40.3V5.9h-4.9V1.2h15v4.7h-4.9v34.4h-5.2ZM70.1 40.3V1.2h9.5c3.1 0 5 1.4 5.6 4 .7 2.8 1 8 1 15.5 0 7.6-.3 12.8-1 15.5-.7 2.7-2.5 4.1-5.6 4.1h-9.5Zm5.2-4.7H78c1 0 1.9-.8 2.3-2.2.4-1.4.7-5.6.7-12.7 0-7-.3-11.2-.7-12.6-.4-1.4-1.2-2.2-2.3-2.2h-2.8v29.7ZM56.4 40.3V1.2h5.1v34.4h6.7v4.7H56.4ZM45.8 40.5c-2.8 0-5-.6-6.2-2-1.4-1.4-2-3.7-2-7V1.2h5.2v29.4c0 2 .2 3.3.7 4 .5.8 1.2 1.2 2.3 1.2 1 0 1.8-.4 2.3-1.1.5-.8.7-2.1.7-4V1.1H54v30.3c0 3.3-.7 5.6-2 7-1.3 1.4-3.4 2-6.2 2ZM27 40.6c-4 0-6.3-1.6-7.2-4.8-.9-3.3-1.3-8.3-1.3-15 0-6.9.4-12 1.3-15.1C20.6 2.5 23 .9 27 .9s6.5 1.6 7.3 4.8c.9 3.2 1.3 8.3 1.3 15 0 6.8-.4 11.8-1.3 15-.8 3.3-3.3 4.9-7.3 4.9Zm0-4.8c1.2 0 2-.8 2.6-2.3.6-1.5.9-5.8.9-12.8 0-7-.3-11.3-1-12.8-.5-1.5-1.3-2.3-2.5-2.3-1 0-2 .8-2.5 2.3-.6 1.5-.9 5.8-.9 12.8 0 7 .3 11.3.9 12.8.6 1.5 1.4 2.3 2.5 2.3ZM8.3 40.5c-4 0-6.4-1.5-7.1-4.6C.4 32.7 0 27.7 0 20.6c0-7 .4-12 1.2-15.1.7-3 3.1-4.6 7.1-4.6 4 0 6.4 1.5 7.1 4.5.7 3 1.1 6.9 1.1 11.8h-5.2c0-5.2-.2-8.4-.7-9.7-.4-1.2-1.2-1.9-2.3-1.9-1 0-1.9.7-2.4 2s-.7 5.7-.7 13c0 7.4.2 11.8.7 13.2.5 1.3 1.3 2 2.4 2 1 0 1.9-.7 2.3-2 .5-1.2.7-4.4.7-9.6h5.2c0 4.8-.4 8.7-1 11.8-.8 3-3.2 4.5-7.2 4.5Z" fill="#fff"/></svg>