<svg width="341" height="184" fill="none" xmlns="http://www.w3.org/2000/svg"><path d="m174.2 0 20 30.8 38.4-26.3-.6 32.3 53.2-19.2-21 30.6 52.6-10.3-29.2 26 44.2-.3-31.9 18.7L341 92l-41 9.7 31.8 18.7-44.2-.2 29.2 25.9-52.6-10.3 21 30.6-53.2-19.2.6 32.3-38.5-26.3-19.9 30.8-20-30.8-38.4 26.3.6-32.3-53.2 19.2 21-30.6-48.1 10.3 24.7-26-51.6.3 39.3-18.7L0 92l48.5-9.7L9.2 63.6l51.6.2L36 38l48.1 10.3-21-30.6 53.2 19.2-.6-32.3 38.5 26.3L174.2 0Z" fill="#FFDF41"/><path d="M252.3 121v-18.2h9.4l6.6 15.9h.1l.1-16h5.8v18.4H265l-6.7-16h-.1v16h-5.9ZM223.6 121l-3.3-18.2h6l2.2 16 3.3-16h7l3.2 16h.1l2.1-16h6.1L247 121h-8.7l-2.9-16-3 16h-8.7ZM209.3 121.5c-4.5 0-7.2-.7-8.2-2.3-1-1.5-1.5-3.8-1.5-7 0-3.3.5-5.6 1.5-7.1 1-1.6 3.7-2.3 8.2-2.3 4.5 0 7.3.7 8.2 2.3 1 1.5 1.5 3.9 1.5 7 0 3.3-.5 5.6-1.5 7.1-1 1.6-3.7 2.3-8.2 2.3Zm0-2.2c1.3 0 2.2-.4 2.9-1.1.6-.7 1-2.7 1-6 0-3.4-.4-5.4-1-6.1-.7-.7-1.6-1-2.9-1-1.3 0-2.2.3-2.9 1-.6.7-1 2.7-1 6 0 3.4.4 5.4 1 6 .7.8 1.6 1.2 2.9 1.2ZM179 121v-18.2h11c3.6 0 5.7.6 6.5 1.9.8 1.3 1.1 3.7 1.1 7.2 0 3.6-.4 6-1.1 7.3-.8 1.2-3 1.9-6.5 1.9h-11Zm6-2.1h3.2c1.3 0 2.2-.4 2.7-1 .5-.7.8-2.7.8-6s-.3-5.2-.8-5.9c-.5-.7-1.4-1-2.7-1h-3.3V119ZM165.8 121v-16h-5.5v-2.2H177v2.2h-5.5v16h-5.7ZM136.3 121v-18.2h9.3l6.6 15.9h.1l.1-16h5.9v18.4h-9.4l-6.6-16h-.2v16h-5.8ZM123.6 121.5c-3.2 0-5.6-.3-7-1-1.6-.6-2.3-1.7-2.3-3.3v-14.4h5.9v14c0 1 .3 1.6.8 2 .5.3 1.4.5 2.6.5 1.2 0 2-.2 2.6-.6.6-.3.8-1 .8-2v-14h6v14.5c0 1.6-.8 2.7-2.3 3.3-1.5.7-3.9 1-7.1 1ZM103 121.5c-4.4 0-7-.7-8-2.3-1-1.5-1.4-3.8-1.4-7 0-3.3.4-5.6 1.4-7.1.9-1.6 3.5-2.3 8-2.3 4.3 0 7 .7 7.9 2.3.9 1.5 1.4 3.9 1.4 7 0 3.3-.5 5.6-1.4 7.1-1 1.6-3.6 2.3-8 2.3Zm0-2.2c1.1 0 2-.4 2.7-1.1.6-.7 1-2.7 1-6 0-3.4-.4-5.4-1-6.1-.6-.7-1.6-1-2.8-1-1.2 0-2.1.3-2.8 1-.6.7-1 2.7-1 6 0 3.4.4 5.4 1 6 .7.8 1.6 1.2 2.8 1.2ZM81.6 121.5c-4.5 0-7.2-.7-8-2.2-1-1.5-1.4-3.9-1.4-7.2 0-3.3.5-5.7 1.3-7.1 1-1.5 3.6-2.2 8.1-2.2 4.6 0 7.3.7 8.1 2.1.8 1.4 1.2 3.3 1.2 5.6H85c0-2.5-.2-4-.8-4.6-.5-.6-1.3-.9-2.6-.9-1.2 0-2 .3-2.6 1-.6.6-.9 2.6-.9 6.1 0 3.5.3 5.6.9 6.2.5.6 1.4 1 2.6 1 1.3 0 2.1-.3 2.6-1 .6-.5.8-2 .8-4.5h6c0 2.3-.5 4.1-1.3 5.6-.8 1.4-3.5 2.1-8 2.1ZM259 100.2V86.4l-8.7-24.9h7.2l4.9 18.4 4.8-18.4h7.1l-8.5 25v13.7h-6.9ZM228.3 100.2l6.5-38.7h10.3l6.6 38.7h-7L243.3 90h-6.6l-1.4 10.3h-7Zm9-15h5.5L240.1 66h-.1l-2.8 19.3ZM205.6 100.2V61.5h13c4.2 0 6.8 1.4 7.7 4 .9 2.7 1.4 7.8 1.4 15.4 0 7.5-.5 12.6-1.4 15.3-1 2.7-3.5 4-7.6 4h-13Zm7-4.7h3.9c1.5 0 2.6-.7 3.2-2 .6-1.5.9-5.7.9-12.6 0-7-.3-11.2-.9-12.6-.6-1.4-1.7-2-3.2-2h-3.8v29.2ZM192 100.2c-5.4 0-8.6-1.2-9.6-3.7s-1.4-6-1.4-10.9h7c0 4.6.2 7.4.9 8.4.6 1 1.6 1.6 3 1.6 1.5 0 2.5-.5 3.2-1.4a7 7 0 0 0 .9-4c0-2.2-.4-3.8-1.3-4.7-.9-.9-2.4-1.7-4.6-2.4a16.8 16.8 0 0 1-7.4-4c-1.1-1.5-1.7-3.8-1.7-7 0-2.4.5-5 1.5-7.4 1-2.4 4.1-3.6 9.5-3.6 5.3 0 8.5 1.3 9.5 3.9 1 2.6 1.4 6 1.4 10.5h-7c0-4.4-.3-7.1-1-8.2-.6-1-1.6-1.6-3-1.6s-2.4.5-3.1 1.5a7 7 0 0 0-1 3.8c0 2.3.5 3.8 1.4 4.7 1 .9 2.5 1.7 4.8 2.5 3.7 1.3 6.1 2.6 7.3 3.9 1.1 1.3 1.7 3.6 1.7 6.9 0 2.6-.5 5-1.5 7.5s-4 3.7-9.5 3.7ZM146.3 100.2V61.5h11.3l4.6 32.2h.1l4.7-32.2h11.3v38.7h-6.9v-34h-.2l-4.9 32.5h-8l-5-32.5h-.1v34h-7ZM132.3 100.2c-5.3 0-8.5-1.5-9.7-4.7a47 47 0 0 1-1.7-14.8c0-6.8.6-11.7 1.7-14.9 1.1-3.1 4.3-4.7 9.7-4.7 5.2 0 8.5 1.6 9.6 4.8 1.1 3.1 1.7 8 1.7 14.8a47 47 0 0 1-1.7 14.8c-1.1 3.2-4.4 4.7-9.6 4.7Zm0-4.7c1.5 0 2.6-.7 3.3-2.2a39 39 0 0 0 1.2-12.6c0-7-.4-11.2-1.2-12.7-.7-1.5-1.8-2.2-3.3-2.2-1.5 0-2.7.7-3.4 2.2-.8 1.5-1.2 5.7-1.2 12.7a39 39 0 0 0 1.2 12.6c.7 1.5 1.9 2.2 3.4 2.2ZM107.6 100.2c-5.3 0-8.5-1.5-9.6-4.7a47 47 0 0 1-1.8-14.8c0-6.8.6-11.7 1.7-14.9 1.1-3.1 4.4-4.7 9.7-4.7 5.3 0 8.5 1.6 9.6 4.8 1.2 3.1 1.7 8 1.7 14.8a47 47 0 0 1-1.7 14.8c-1.1 3.2-4.3 4.7-9.6 4.7Zm0-4.7c1.5 0 2.6-.7 3.4-2.2a39 39 0 0 0 1.1-12.6c0-7-.4-11.2-1.1-12.7-.8-1.5-2-2.2-3.4-2.2-1.5 0-2.6.7-3.4 2.2-.8 1.5-1.1 5.7-1.1 12.7a39 39 0 0 0 1 12.6c.9 1.5 2 2.2 3.5 2.2ZM72.2 100.2V61.5H85c4 0 6.5 1.4 7.4 4A58 58 0 0 1 93.6 81a57 57 0 0 1-1.4 15.3c-.8 2.7-3.3 4-7.3 4H72.2Zm6.9-4.7h3.7c1.5 0 2.5-.7 3-2 .6-1.5 1-5.7 1-12.6 0-7-.4-11.2-1-12.6-.5-1.4-1.5-2-3-2H79v29.2Z" fill="#111"/></svg>