<svg width="67" height="45" fill="none" xmlns="http://www.w3.org/2000/svg"><path d="M30.5 28.4c.1 2.1 3.2 3.4 1.9 5.7-1.1 1.8-2.3.6-3.8 1.5-1.2.8-.8 3-2.7 3.8-1.4.6-2.8-.6-3.2-1.7-.4-1.3-.4-3-1.5-4.2-1-1.2-2.2-1.2-3-2.6-1.2-2 .3-4.9-.8-6.4-1.4-1.7-4-2.1-5.4-.9-1.6 1.5-.7 3.3-1.2 5.4-.4 1.8-2.9 2.5-4 .2-1-2.4.5-3.9.4-6.2-.2-2.5-2.4-5.8.1-7.6 1.9-1.4 4.3.7 5.6 3.2 1.2 2.4 4 .5 3-1.9-.8-2.1-3-4.7-1.3-6.7C16 8.5 18 9 19 8.5c1-.6 2.3-2.7 3.5-3.3 3.8-1.8 7.4 3.4 5.6 6.2-1 1.5-2.2 1.6-2.6 3.1-.4 1.4 2 3 1 4.8-1.1 1.9-2.8 2-4.2 3.6-3.2 3.9 3.2 11.7 4.9 10.7 1.6-1-2.4-7.7-.2-11.2 2.1-3.2 6.2-2.4 5.6 1-.3 1.7-2.1 3.1-2 5ZM23.8 10c-.3-.4-1-.6-2.1.3-2.5 2.1-3.2 5.3-2.3 6.7.8 1.3 1.7 1.4 2.4.7 1-.8-.1-2.6.7-4.6.6-1.4 2-2.3 1.3-3.1ZM36.3 28.4c0 2.1-3.2 3.4-1.8 5.7 1 1.8 2.3.6 3.8 1.5 1.2.8.8 3 2.7 3.8 1.4.6 2.8-.6 3.1-1.7.4-1.3.5-3 1.5-4.2 1-1.2 2.3-1.2 3.1-2.6 1.2-2-.3-4.9.8-6.4 1.3-1.7 4-2.1 5.4-.9 1.6 1.5.6 3.3 1.1 5.4.5 1.8 3 2.5 4 .2 1-2.4-.5-3.9-.3-6.2.2-2.5 2.4-5.8-.1-7.6-1.9-1.4-4.4.7-5.6 3.2-1.2 2.4-4 .5-3-1.9.8-2.1 3-4.7 1.2-6.7C51 8.5 49 9 48 8.5s-2.3-2.7-3.5-3.3c-3.8-1.8-7.4 3.4-5.6 6.2 1 1.5 2.1 1.6 2.6 3.1.3 1.4-2 3-1 4.8 1 1.9 2.7 2 4.1 3.6 3.3 3.9-3.1 11.7-4.8 10.7-1.6-1 2.4-7.7.1-11.2-2-3.2-6.1-2.4-5.5 1 .3 1.7 2.1 3.1 2 5ZM43 10c.4-.4 1-.6 2.2.3 2.5 2.1 3.2 5.3 2.3 6.7-.8 1.3-1.7 1.4-2.5.7-.9-.8.2-2.6-.7-4.6-.6-1.4-2-2.3-1.3-3.1Z" fill="#fff"/></svg>