<svg width="1658" height="105" fill="none" xmlns="http://www.w3.org/2000/svg"><path d="M1530.2 103.5V1.1h55.8v41.6h15.9V1h55.8v102.4h-55.8V63h-16v40.6h-55.7ZM1439.4 103.5V21.3H1412V1h110.5v20.2h-27.4v82.2h-55.7ZM1313 103.5V1.1h91.4v20.2H1369V42h33.6v19.6h-33.6v21.7h35.5v20.1h-91.3ZM1232.7 104.2c-32 0-49.4-5-52.5-14.6a127 127 0 0 1-4.7-37.7c0-15.9 1.6-28.5 4.7-37.9 3.2-9.3 23.3-14 60.3-14 36.5 0 56.2 4.6 59.2 13.7s4.6 17.6 4.8 25.4h-55.8c-.2-10-.8-15.7-2-17-1-1.3-3-2-6.2-2-3.1 0-5.4.9-7 2.4-1.3 1.6-2 12-2 31.5 0 14.4.7 23 2 25.8 1.5 2.8 4.1 4.2 8 4.2 3.1 0 5.3-.8 6.5-2.4 1.3-1.6 2-6 2.2-13.6v-.2h-8.2V49.5h62.5v54h-27.1l-7.7-7.5c-6.2 5.3-18.5 8-37 8.2ZM1006.6 103.5V1.1h86.4l17.7 81h.5l1.2-81h55.2v102.4h-87.3l-17.6-82h-1v82h-55ZM865.7 103.5 890.3 1h85.4l25 102.6h-56.5l-2.9-23.3h-16l-3.2 23.3h-56.4Zm61.8-43.4h11.6l-5.4-39.8h-1L927.6 60ZM788 104.2c-32 0-49.5-5-52.6-14.6a127 127 0 0 1-4.6-37.7c0-15.9 1.5-28.5 4.6-37.9 3.2-9.3 23.3-14 60.3-14C832.2 0 852 4.6 855 13.7s4.6 17.6 4.8 25.4H804c-.2-10-.9-15.7-2-17-1-1.3-3-2-6.3-2-3 0-5.4.9-6.9 2.4-1.4 1.6-2 12-2 31.5 0 14.4.6 23 2 25.8 1.4 2.8 4 4.2 8 4.2 3 0 5.2-.8 6.4-2.4 1.3-1.6 2-6 2.3-13.6v-.2h-8.3V49.5h62.6v54h-27.2L825 96c-6.2 5.3-18.6 8-37 8.2ZM636.3 103.5V1.1h55.8v82.6h32.6v19.8h-88.4ZM537.3 103.5V1.1h91.3v20.2h-35.5V42h33.6v19.6h-33.6v21.7h35.5v20.1h-91.3ZM404 103.5V1.1h85c24.3 0 37.2 4.1 38.9 12.5a126 126 0 0 1-.1 51C526 73 513 77.2 489 77.2h-29.3v26.3H404ZM459.8 57h8.7c3.1 0 4.9-1.1 5.4-3.4.6-2.3.9-7.1.9-14.6 0-7.4-.3-12.2-1-14.4-.6-2.2-2.4-3.3-5.3-3.3h-8.7V57ZM270.4 103.5V1.1h85c24.3 0 37.2 4.1 39 12.5a126 126 0 0 1-.2 51c-1.8 8.4-14.7 12.6-38.7 12.6h-29.3v26.3h-55.8ZM326.2 57h8.7c3.1 0 5-1.1 5.4-3.4.6-2.3 1-7.1 1-14.6 0-7.4-.4-12.2-1.1-14.4-.6-2.2-2.4-3.3-5.3-3.3h-8.7V57ZM198.5 104.2c-36.6 0-56.5-4.7-59.8-14-3.3-9.6-5-22.2-5-38 0-16 1.6-28.6 4.8-38 3.3-9.5 23.3-14.2 60-14.2 36.8 0 56.9 4.8 60.2 14.3 3.3 9.4 5 22 5 38 0 15.7-1.7 28.3-5 37.8-3.3 9.4-23.4 14.1-60.2 14.1Zm0-20.2c3.5 0 6-.7 7.5-2.2 1.6-1.6 2.4-11.5 2.4-29.6 0-18.6-.8-28.6-2.4-30-1.5-1.3-4-2-7.5-2-3.2 0-5.6.7-7.2 2-1.5 1.4-2.2 11.4-2.2 30 0 18.1.7 28 2.2 29.6 1.6 1.5 4 2.2 7.2 2.2ZM0 103.5V1.1h82.2c25.5 0 39.5 3.7 41.8 11.3 2.5 7.5 3.7 20.7 3.7 39.8 0 19.1-1.3 32.4-3.8 40-2.5 7.6-16.4 11.3-41.7 11.3H0Zm55.5-20.1H64c3.3 0 5.5-.9 6.5-2.5 1.1-1.6 1.7-11.2 1.7-28.7s-.6-27-1.7-28.6c-1-1.6-3.2-2.3-6.5-2.3h-8.5v62Z" fill="#fff"/></svg>