<svg width="397" height="189" fill="none" xmlns="http://www.w3.org/2000/svg"><path d="M381.6 188.5c-7.7 0-12.2-6-13.6-18-1.3-11.9-2-29.3-2-52.2h9.8c0 21.9.5 35.3 1.3 40.3 1 5 2.4 7.4 4.4 7.4 2 0 3.5-2.2 4.3-6.7 1-4.5 1.4-10.9 1.4-19 0-10.8-.6-18.4-1.9-22.6a30.7 30.7 0 0 0-6.5-11.8 46.6 46.6 0 0 1-10.3-19.4c-1.6-7-2.4-18-2.4-33.2 0-12 .7-24 2-35.7C369.5 6 374 0 381.6 0c7.5 0 12 6.2 13.3 18.7 1.3 12.5 2 29.4 2 50.7h-9.8c0-21.2-.5-34.3-1.4-39.4-.9-5-2.3-7.6-4.2-7.6-2 0-3.5 2.4-4.4 7.2-1 4.8-1.4 10.9-1.4 18.3 0 10.8.7 18.4 2 22.6 1.2 4.2 3.4 8.2 6.6 11.8a48 48 0 0 1 10.3 18.9c1.6 6.3 2.4 17.3 2.4 33 0 12.5-.7 24.7-2 36.5-1.4 11.8-5.8 17.8-13.4 17.8ZM342 187.4V121L329.9 1.5H340l7 88.4 6.8-88.4h10.3L352 121.3v66h-9.8ZM298.6 187.4l9.3-186.2h14.9l9.4 186.2h-10l-2-49.9h-9.6l-2 49.9h-10Zm12.8-72.2h8l-4-92.8-4 92.8ZM266.8 187.4V1.5H285c5.9 0 9.4 6.5 10.7 19.4a917 917 0 0 1 1.9 73.5c0 36.1-.7 60.6-2 73.6-1.2 12.9-4.8 19.4-10.6 19.4h-18Zm9.8-22.6h5.3c2.2 0 3.7-3.4 4.5-10 .8-6.9 1.2-27 1.2-60.4 0-33.5-.4-53.6-1.2-60.3-.8-6.7-2.3-10-4.5-10h-5.3v140.7ZM227.9 187.4V1.5h9.8v163.6h12.6v22.3H228ZM191 187.4l9.4-186.2h14.9l9.4 186.2h-10l-2-49.9H203l-2 49.9h-10Zm12.9-72.2h8l-4-92.8-4 92.8ZM150.7 187.4V1.5h15.5l11.1 161.6h.2l.1-161.6h9.8v185.9h-15.6L160.7 24.5h-.3v162.9h-9.7ZM135.4 187.4V1.5h9.9v185.9h-9.9ZM107.7 187.4V1.5h23v22.6h-13.2v65.7H130v22h-12.4v75.6h-9.8ZM67 187.4V1.5h23.8v22.6h-14v57.5H90v22H76.7v61.2h14v22.6H67ZM32 187.4V1.5h9.8v78.9h10.6V1.5h9.8v185.9h-9.8V103H41.8v84.3H32ZM9.4 187.4V24H0V1.5h28.5v22.6h-9.3v163.3H9.4Z" fill="#fff"/></svg>