<svg width="283" height="43" fill="none" xmlns="http://www.w3.org/2000/svg"><path d="M272.4 32c0-3.1.3-5.7.7-7.5.5-2 1.1-3.7 2-5.2.7-1.3 1.2-2.6 1.7-3.9.4-1.3.6-2.9.6-4.7 0-2.1-.1-3.7-.5-4.6-.4-1-1-1.5-2-1.5-1.1 0-1.9.6-2.3 1.8-.5 1.2-.7 3.4-.7 6.6h-5c0-5.2.6-8.7 1.8-10.4C270 .9 272 0 274.7 0c3 0 5 .8 6.2 2.4 1.1 1.5 1.7 4 1.7 7.3a22.6 22.6 0 0 1-2.9 11.4c-.9 1.6-1.5 3.3-1.7 5-.3 1.9-.4 3.8-.4 6h-5.2Zm.1 4.2h5v6h-5v-6ZM249 42V.3h5.3v18.8L259.8.3h5.5l-6.3 21 6.4 20.7h-5.6l-5.5-18.7V42H249ZM230.8 42V.3h10.7c2.7 0 4.3 1.3 4.7 4a48.5 48.5 0 0 1 0 16c-.5 2.4-2 3.6-4.8 3.6h-5.3V42h-5.3Zm11 0-3-19.4 5-.6 3.4 20h-5.5ZM236 19.4h3.5c.9 0 1.4-.6 1.6-1.9a32 32 0 0 0 0-10.2c-.2-1.2-.7-1.9-1.6-1.9H236v14ZM220.2 42.3c-4 0-6.5-1.7-7.4-5.1-.9-3.4-1.3-8.8-1.3-16 0-7.3.4-12.7 1.3-16 .8-3.5 3.3-5.2 7.4-5.2 4 0 6.5 1.7 7.4 5.2.8 3.4 1.3 8.7 1.3 16 0 7.2-.5 12.6-1.3 16-1 3.4-3.4 5.1-7.4 5.1Zm0-5c1.1 0 2-.9 2.6-2.5.5-1.6.8-6.2.8-13.6 0-7.6-.3-12.1-.8-13.7-.6-1.6-1.5-2.4-2.6-2.4-1.2 0-2 .8-2.6 2.4-.6 1.6-1 6.1-1 13.7 0 7.4.4 12 1 13.6.6 1.6 1.4 2.4 2.6 2.4ZM185.7 42l-3-41.7h5.5l2 36.5 3-36.5h6.3l3 36.5 2-36.5h5.6L206.9 42H199l-2.6-36.5h-.1L193.7 42h-8ZM164.6 42V5.4h-5v-5h15.2v5h-5V42h-5.2ZM151.7 42V.3h5.3V42h-5.3ZM133.8 42.3c-4 0-6.5-1.4-7.2-4-.7-2.7-1-6.6-1-11.8h5.1c0 5 .3 8 .8 9 .4 1.2 1.2 1.7 2.3 1.7 1 0 1.8-.5 2.3-1.5.5-1 .7-2.4.7-4.2 0-2.5-.3-4.2-1-5.1-.6-1-1.8-1.9-3.4-2.7a12.5 12.5 0 0 1-5.6-4.3 16 16 0 0 1-1.3-7.5c0-2.6.4-5.3 1.1-8 .8-2.6 3.2-3.9 7.2-3.9s6.4 1.4 7.1 4.2c.8 2.8 1.1 6.6 1.1 11.4h-5.2c0-4.8-.3-7.7-.7-8.9-.5-1.1-1.3-1.7-2.3-1.7-1.1 0-1.9.6-2.4 1.6-.5 1.1-.7 2.5-.7 4.1 0 2.5.3 4.2 1 5.1.7 1 1.9 1.8 3.6 2.7 2.8 1.4 4.6 2.8 5.5 4.2.9 1.4 1.3 3.9 1.3 7.4 0 2.8-.4 5.5-1 8.2-.8 2.6-3.2 4-7.3 4ZM110.7 42V.3h12.8v5.1H116v13h7v4.8h-7V37h7.5v5h-12.8ZM100 42.3c-4 0-6.5-1.7-7.3-5.1-1-3.4-1.3-8.8-1.3-16 0-7.3.4-12.7 1.2-16C93.5 1.6 96 0 100 0s6.6 1.7 7.4 5.2a71 71 0 0 1 1.3 16c0 7.2-.4 12.6-1.3 16-.8 3.4-3.3 5.1-7.4 5.1Zm0-5c1.2 0 2-.9 2.6-2.5.6-1.6.9-6.2.9-13.6a59 59 0 0 0-.9-13.7C102 5.9 101.2 5 100 5c-1.1 0-2 .8-2.6 2.4-.5 1.6-.8 6.1-.8 13.7 0 7.4.3 12 .8 13.6.6 1.6 1.5 2.4 2.6 2.4ZM73.1 42V.3h9.7c3.1 0 5 1.5 5.7 4.4.7 2.9 1 8.4 1 16.5 0 8-.3 13.6-1 16.5-.7 2.9-2.6 4.3-5.7 4.3h-9.7Zm5.3-5h2.8c1.2 0 2-.8 2.4-2.3.4-1.5.7-6 .7-13.5s-.3-12-.7-13.5c-.5-1.5-1.2-2.3-2.4-2.3h-2.8V37ZM40 42 37 .3h5.4l2 36.5 3-36.5h6.3l3 36.5h.1l2-36.5h5.5L61.2 42h-8L50.7 5.5 47.9 42h-8ZM27.2 42.3c-4 0-6.5-1.7-7.3-5.1-1-3.4-1.4-8.8-1.4-16 0-7.3.5-12.7 1.3-16 .9-3.5 3.4-5.2 7.4-5.2s6.5 1.7 7.4 5.2a71 71 0 0 1 1.3 16c0 7.2-.4 12.6-1.3 16-.9 3.4-3.3 5.1-7.4 5.1Zm0-5c1.2 0 2-.9 2.6-2.5.6-1.6.9-6.2.9-13.6a59 59 0 0 0-.9-13.7C29.2 5.9 28.4 5 27.2 5c-1.1 0-2 .8-2.6 2.4a59 59 0 0 0-.8 13.7c0 7.4.2 12 .8 13.6.6 1.6 1.5 2.4 2.6 2.4ZM0 42V.3h5.3V18h5.6V.3h5.3V42h-5.3V23.1H5.3v19H0Z" fill="#fff"/></svg>