<svg width="230" height="43" viewBox="0 0 230 43" fill="none" xmlns="http://www.w3.org/2000/svg">
    <path
        d="M221.55 42.3261C217.519 42.3261 215.15 40.9864 214.443 38.3069C213.736 35.6273 213.383 31.7111 213.383 26.5582H218.527C218.527 31.4844 218.76 34.504 219.226 35.617C219.708 36.7301 220.475 37.2866 221.528 37.2866C222.581 37.2866 223.34 36.7816 223.807 35.7716C224.273 34.7616 224.506 33.3394 224.506 31.505C224.506 29.0728 224.183 27.3827 223.536 26.4345C222.889 25.4658 221.746 24.5795 220.106 23.7756C217.339 22.3946 215.526 20.9415 214.669 19.4162C213.827 17.8704 213.405 15.3866 213.405 11.9651C213.405 9.26496 213.766 6.59575 214.488 3.95745C215.21 1.31915 217.564 0 221.55 0C225.506 0 227.838 1.4016 228.545 4.20479C229.267 7.00798 229.628 10.8005 229.628 15.5825H224.461C224.461 10.8211 224.22 7.87367 223.739 6.74003C223.273 5.60639 222.528 5.03956 221.505 5.03956C220.437 5.03956 219.663 5.57547 219.181 6.64728C218.715 7.71908 218.482 9.08976 218.482 10.7593C218.482 13.1915 218.813 14.8817 219.475 15.8298C220.151 16.7779 221.332 17.6642 223.017 18.4887C225.769 19.8903 227.567 21.3022 228.409 22.7244C229.252 24.1466 229.673 26.62 229.673 30.1446C229.673 32.9478 229.319 35.6789 228.612 38.3378C227.905 40.9967 225.551 42.3261 221.55 42.3261Z"
        fill="white" />
    <path
        d="M195.631 42.0786V0.339844H206.1C208.762 0.339844 210.304 1.63838 210.725 4.23545C211.161 6.83253 211.379 9.56358 211.379 12.4286C211.379 15.2524 211.154 17.8701 210.702 20.2817C210.266 22.6932 208.709 23.899 206.032 23.899H200.82V42.0786H195.631ZM206.303 42.0786L203.37 22.6623L208.378 21.9821L211.695 42.0786H206.303ZM200.82 19.4469H204.227C205.099 19.4469 205.641 18.8079 205.852 17.53C206.062 16.2315 206.167 14.5516 206.167 12.4904C206.167 10.3674 206.055 8.65667 205.829 7.35813C205.618 6.05959 205.084 5.41032 204.227 5.41032H200.82V19.4469Z"
        fill="white" />
    <path
        d="M185.14 42.3571C181.169 42.3571 178.755 40.6463 177.897 37.2247C177.04 33.8032 176.611 28.4648 176.611 21.2094C176.611 13.9129 177.032 8.55386 177.875 5.13232C178.717 1.71077 181.139 0 185.14 0C189.126 0 191.548 1.72108 192.405 5.16323C193.262 8.60539 193.691 13.9541 193.691 21.2094C193.691 28.4648 193.262 33.8032 192.405 37.2247C191.548 40.6463 189.126 42.3571 185.14 42.3571ZM185.14 37.2866C186.268 37.2866 187.118 36.4724 187.689 34.8441C188.261 33.2158 188.547 28.6709 188.547 21.2094C188.547 13.6449 188.261 9.06915 187.689 7.48205C187.118 5.87434 186.268 5.07048 185.14 5.07048C184.027 5.07048 183.177 5.87434 182.59 7.48205C182.019 9.06915 181.733 13.6449 181.733 21.2094C181.733 28.6709 182.019 33.2158 182.59 34.8441C183.177 36.4724 184.027 37.2866 185.14 37.2866Z"
        fill="white" />
    <path d="M165.268 42.0786V5.41032H160.35V0.339844H175.331V5.41032H170.435V42.0786H165.268Z" fill="white" />
    <path
        d="M150.846 42.3261C146.86 42.3261 144.476 40.6669 143.694 37.3484C142.927 34.0093 142.543 28.5884 142.543 21.0858C142.543 13.5625 142.927 8.17254 143.694 4.91589C144.461 1.63863 146.845 0 150.846 0C154.892 0 157.269 1.59741 157.976 4.79222C158.682 7.96642 159.036 12.1918 159.036 17.4684H153.824C153.824 11.8827 153.598 8.41988 153.147 7.08012C152.696 5.74036 151.929 5.07048 150.846 5.07048C149.763 5.07048 148.973 5.78159 148.477 7.20379C147.98 8.60539 147.732 13.2327 147.732 21.0858C147.732 28.9801 147.98 33.6486 148.477 35.0914C148.973 36.5343 149.763 37.2557 150.846 37.2557C151.929 37.2557 152.696 36.5755 153.147 35.2151C153.598 33.8341 153.824 30.392 153.824 24.8886H159.036C159.036 30.021 158.675 34.2154 157.953 37.4721C157.246 40.7081 154.877 42.3261 150.846 42.3261Z"
        fill="white" />
    <path
        d="M128.074 42.0786V0.339844H140.619V5.41032H133.241V18.3339H140.213V23.2498H133.241V37.0081H140.619V42.0786H128.074Z"
        fill="white" />
    <path
        d="M113.811 42.0786L109.027 0.339844H114.284L117.624 36.9772H117.669L120.985 0.339844H126.242L121.482 42.0786H113.811Z"
        fill="white" />
    <path
        d="M84.9766 42.0786V0.339844H90.0982V19.0759L95.4905 0.339844H100.973L94.746 21.2401L101.018 42.0786H95.5357L90.0982 23.3734V42.0786H84.9766Z"
        fill="white" />
    <path
        d="M74.6115 42.3261C70.6255 42.3261 68.2414 40.6669 67.4593 37.3484C66.6921 34.0093 66.3086 28.5884 66.3086 21.0858C66.3086 13.5625 66.6921 8.17254 67.4593 4.91589C68.2264 1.63863 70.6105 0 74.6115 0C78.6576 0 81.0342 1.59741 81.7411 4.79222C82.4481 7.96642 82.8016 12.1918 82.8016 17.4684H77.5897C77.5897 11.8827 77.3641 8.41988 76.9128 7.08012C76.4616 5.74036 75.6945 5.07048 74.6115 5.07048C73.5285 5.07048 72.7388 5.78159 72.2424 7.20379C71.7461 8.60539 71.4979 13.2327 71.4979 21.0858C71.4979 28.9801 71.7461 33.6486 72.2424 35.0914C72.7388 36.5343 73.5285 37.2557 74.6115 37.2557C75.6945 37.2557 76.4616 36.5755 76.9128 35.2151C77.3641 33.8341 77.5897 30.392 77.5897 24.8886H82.8016C82.8016 30.021 82.4406 34.2154 81.7186 37.4721C81.0116 40.7081 78.6426 42.3261 74.6115 42.3261Z"
        fill="white" />
    <path
        d="M47.9551 42.0779L52.8736 0.277344H60.6802L65.6213 42.0779H60.3643L59.3039 30.8857H54.2951L53.2121 42.0779H47.9551ZM54.7012 25.8771H58.9203L56.8446 5.03865H56.7543L54.7012 25.8771Z"
        fill="white" />
    <path d="M38.7955 42.0786V5.41032H33.877V0.339844H48.8582V5.41032H43.9623V42.0786H38.7955Z" fill="white" />
    <path d="M22.1803 42.0786V5.41032H17.2617V0.339844H32.243V5.41032H27.347V42.0786H22.1803Z" fill="white" />
    <path
        d="M0.671875 42.0779L5.59043 0.277344H13.397L18.3381 42.0779H13.0811L12.0207 30.8857H7.01185L5.92887 42.0779H0.671875ZM7.41797 25.8771H11.6371L9.56138 5.03865H9.47113L7.41797 25.8771Z"
        fill="white" />
</svg>