<svg width="283" height="43" fill="none" xmlns="http://www.w3.org/2000/svg"><path d="M274 42.3c-4.1 0-6.5-1.4-7.3-4-.7-2.7-1-6.6-1-11.8h5.2c0 5 .2 8 .7 9 .5 1.2 1.3 1.7 2.3 1.7 1.1 0 1.9-.5 2.4-1.5.4-1 .7-2.4.7-4.2 0-2.5-.3-4.2-1-5.1-.7-1-1.8-1.9-3.5-2.7a12.5 12.5 0 0 1-5.5-4.3c-.9-1.6-1.3-4-1.3-7.5 0-2.6.4-5.3 1-8C267.6 1.4 270 0 274 0c4 0 6.4 1.4 7 4.2.8 2.8 1.2 6.6 1.2 11.4h-5.3c0-4.8-.2-7.7-.7-8.9-.5-1.1-1.2-1.7-2.3-1.7-1 0-1.8.6-2.3 1.6-.5 1.1-.8 2.5-.8 4.1 0 2.5.4 4.2 1 5.1.7 1 2 1.8 3.7 2.7 2.8 1.4 4.6 2.8 5.5 4.2.8 1.4 1.2 3.9 1.2 7.4 0 2.8-.3 5.5-1 8.2-.8 2.6-3.2 4-7.2 4ZM243.7 42V.3h8.3l6 36.3.1-36.3h5.2V42H255l-6-36.5h-.1V42h-5.2ZM233 42.3c-4 0-6.5-1.7-7.4-5.1-.8-3.4-1.3-8.8-1.3-16 0-7.3.5-12.7 1.3-16C226.5 1.6 229 0 233 0c4 0 6.5 1.7 7.4 5.2.9 3.4 1.3 8.7 1.3 16 0 7.2-.4 12.6-1.3 16-.9 3.4-3.3 5.1-7.4 5.1Zm0-5c1.2 0 2-.9 2.6-2.5.6-1.6.9-6.2.9-13.6 0-7.6-.3-12.1-.9-13.7C235 5.9 234.2 5 233 5c-1.1 0-2 .8-2.6 2.4-.6 1.6-.9 6.1-.9 13.7 0 7.4.3 12 1 13.6.5 1.6 1.4 2.4 2.5 2.4ZM216.3 42V.3h5.3V42h-5.3ZM203.7 42V5.4h-5v-5h15.2v5h-5V42h-5.2ZM181.8 42l5-41.7h8l5 41.7h-5.4l-1-11.2h-5.2l-1 11.2h-5.4Zm6.8-16.2h4.3L191 5h-.2l-2 20.8ZM172.6 42.3c-4 0-6.5-1.7-7.3-5-.7-3.3-1.1-8.7-1.1-16.2 0-7.6.4-13 1.1-16.2.8-3.3 3.2-4.9 7.3-4.9s6.6 1.6 7.3 4.8c.7 3.2 1 7.4 1 12.6h-5.3c0-5.5-.2-9-.6-10.3-.5-1.4-1.3-2-2.4-2-1 0-1.9.7-2.4 2-.5 1.5-.8 6.1-.8 14 0 7.8.3 12.5.8 14 .5 1.4 1.3 2.1 2.4 2.1 1.1 0 1.9-.7 2.4-2 .4-1.4.6-4.8.6-10.3h5.4c0 5-.4 9.3-1.1 12.5-.8 3.3-3.2 4.9-7.3 4.9ZM156.2 42V.3h5.3V42h-5.3ZM141.7 42V.3h5.3V37h6.7v5h-12ZM123.8 42V.3h10c3 0 4.7 1.6 5.1 4.7a69.3 69.3 0 0 1 0 20.8c-.5 3.2-2.1 4.7-5 4.7H129V42h-5.2Zm5.2-16.5h3c1 0 1.7-.9 2-2.5.2-1.7.4-4.2.4-7.6 0-3.3-.2-5.8-.5-7.5-.2-1.7-.9-2.5-1.8-2.5h-3v20ZM97.1 42V.3h8.6L109 35h.2L112.7.3h8.6V42H116V5.4h-.1l-3.8 35h-6l-3.7-35h-.2V42h-5.2ZM89 42V.3h5.2V42H89ZM67.6 42V.3h5.2V37h6.8v5h-12ZM47.9 42l5-41.7h8l5 41.7h-5.4l-1-11.2h-5.2l-1 11.2h-5.4Zm6.8-16.2H59L57 5h-.2l-2 20.8ZM37 42.3c-3.7 0-6-1.7-6.7-5-.8-3.4-1.2-8.8-1.2-16.3 0-7.6.4-13 1.2-16.2C31 1.6 33.5 0 37.6 0c4 0 6.4 1.6 7.1 4.7.8 3.2 1.2 7 1.2 11.2h-5.3c0-4.5-.2-7.4-.7-8.8-.4-1.3-1.1-2-2.3-2-1.1 0-2 .7-2.4 2.1-.5 1.4-.8 6.2-.8 14.2 0 7 .3 11.4.8 13.2.5 1.7 1.3 2.6 2.5 2.6 1 0 1.7-.5 2.2-1.4.5-1 .8-3 .8-6v-3.6h-2.8v-4.6h8V42h-2.7l-.7-3.6c-.8 2.5-2.7 3.8-5.5 3.9ZM14.3 42V.3h12.8v5.1h-7.5v13h7v4.8h-7V37H27v5H14.3ZM.3 42V.3h5.3V37h6.7v5H.3Z" fill="#fff"/></svg>