<svg width="35" height="35" fill="none" xmlns="http://www.w3.org/2000/svg"><path d="M17.5 0a17.4 17.4 0 0 1 12.4 29.9A17.4 17.4 0 0 1 0 17.5 17.4 17.4 0 0 1 17.5 0Zm10.3 7.2A14.5 14.5 0 0 0 3 17.5a14.5 14.5 0 0 0 25 10.3 14.5 14.5 0 0 0 0-20.6Z" fill="#FFDF41"/><path fill-rule="evenodd" clip-rule="evenodd" d="m11.1 21.2 9-9a1 1 0 0 1 1.4 1.4l-9.7 9.9a1 1 0 0 1-1.4 0L6.9 20a1 1 0 0 1 1.5-1.5l2.7 2.7Zm6.2 0 9-9a1 1 0 0 1 1.4 1.4l-9.6 9.9a1 1 0 0 1-1.5 0L15 21.9l1.5-1.5.8.8Z" fill="#FFDF41"/></svg>