<svg width="35" height="36" fill="none" xmlns="http://www.w3.org/2000/svg"><path d="M17.5 10c-.9 0-1.6-.7-1.6-1.6V1.6c0-.9.7-1.6 1.6-1.6.9 0 1.6.7 1.6 1.6v6.8c0 .9-.7 1.6-1.6 1.6Zm-4.8 1.5c.7-.5.9-1.5.4-2.2L9 3.8c-.6-.7-1.6-.9-2.3-.4C6 4 5.8 5 6.4 5.7l4 5.5c.3.4.8.6 1.3.6.4 0 .7 0 1-.3Zm-3 4c.3-.8-.2-1.7-1-2l-6.6-2c-.9-.3-1.8.1-2 1-.3.8.2 1.7 1 2l6.6 2 .5.1c.7 0 1.3-.4 1.5-1Zm-7.6 9 6.6-2c.8-.3 1.3-1.2 1-2a1.6 1.6 0 0 0-2-1l-6.6 2c-.8.3-1.3 1.2-1 2 .2.7.8 1.1 1.5 1.1h.5ZM9 32.3l4-5.5c.6-.7.4-1.7-.3-2.2-.7-.5-1.7-.4-2.2.3l-4.1 5.5c-.5.8-.4 1.7.4 2.3.2.2.6.3.9.3.5 0 1-.3 1.3-.7ZM19 34.4v-6.8c0-.9-.7-1.6-1.6-1.6-.9 0-1.6.7-1.6 1.6v6.8c0 .9.7 1.6 1.6 1.6.9 0 1.6-.7 1.6-1.6Zm9.2-1.8c.7-.6.9-1.5.3-2.3l-4-5.5c-.6-.7-1.6-.8-2.3-.3-.7.5-.9 1.5-.4 2.2l4 5.5c.4.4.9.6 1.4.6.3 0 .7 0 1-.2Zm6.6-9c.3-.9-.2-1.8-1-2l-6.6-2.1c-.9-.3-1.8.2-2 1-.3.9.2 1.8 1 2l6.6 2.1h.5c.7 0 1.3-.4 1.5-1Zm-7.6-7 6.6-2.2c.8-.2 1.3-1.1 1-2a1.6 1.6 0 0 0-2-1l-6.6 2.1c-.8.3-1.3 1.2-1 2 .2.7.8 1.1 1.5 1.1h.5Zm-2.8-5.4 4.1-5.5c.5-.8.4-1.7-.4-2.3-.7-.5-1.7-.3-2.2.4l-4 5.5c-.6.7-.4 1.7.3 2.2.3.2.6.3 1 .3s1-.2 1.2-.6Z" fill="#fff"/></svg>